{"title":"The Slaughter Rule 2002 DVDRip ReRip XviD AC3 titler","uid":8518258,"size":1499438832,"categoryP":"video","categoryS":"movies","magnet":"?xt=urn:btih:44f1fb915829b3e44e26e15d2723e64feb29daeb&amp;dn=The+Slaughter+Rule+2002+DVDRip+ReRip+XviD+AC3+titler&amp;tr=udp%3A%2F%2Ftracker.openbittorrent.com%3A80&amp;tr=udp%3A%2F%2Fopen.demonii.com%3A1337&amp;tr=udp%3A%2F%2Ftracker.coppersurfer.tk%3A6969&amp;tr=udp%3A%2F%2Fexodus.desync.com%3A6969","seeders":0,"leechers":1,"uploader":"movieZ.freak","files":2,"time":1369789171,"description":"SOURCE: DVD-R\n &lt;a href=&quot;\nhttp://www.imdb.com/title/tt0266971/&quot; rel=&quot;nofollow&quot; target=&quot;_NEW&quot;&gt;\nhttp://www.imdb.com/title/tt0266971/&lt;/a&gt;\n\n\n- SAMPLE: Yes\n\n- SUBTITLE: No\n\n- LANGUAGE: English\n\n\nCAST:\n-------\nRyan Gosling, David Morse, Clea DuVall, David Cale, Eddie Spears, Kelly Lynch, Amy Adams\n\n\nPLOT:\n--------\nRoy gets cut from his high school football team just days after his estranged father dies. For him, football is more than a proving ground; it is a promised escape from his lonely rural existence and salvation from the paralyzing passivity that dominates his life. Enter Gideon, a loner living on the roughneck fringe who is looking for gamers--kids who scrap hard--to play on his six-man football squad. Roy joins the Renegades, and he and Gideon enter into tenuous friendship that pushes the limits of male bonding.\n\n\nGeneral\n----------\nFormat : AVI\nFormat/Info : Audio Video Interleave\nFile size : 1.37 GiB\nDuration : 1h 56mn\nOverall bit rate : 1680 Kbps\nWriting application : VirtualDubMod 1.5.10.3\nWriting library : VirtualDubMod build 2550\n\nVideo\n--------\nFormat : MPEG-4 Visual\nFormat profile : Advanced Simple@L5\nFormat settings, BVOP : 1\nFormat settings, QPel : No\nFormat settings, GMC : No warppoints\nFormat settings, Matrix : Custom\nCodec ID : XVID\nCodec ID/Hint : XviD\nDuration : 1h 56mn\nBit rate : 1481 Kbps\nWidth : 720 pixels\nHeight : 336 pixels\nDisplay aspect ratio : 2.143\nFrame rate : 25.000 fps\nColor space : YUV\nChroma subsampling : 4:2:0\nBit depth : 8 bits\nScan type : Progressive\nCompression mode : Lossy\nBits/(Pixel*Frame) : 0.245\nStream size : 1.21 GiB (88%)\nWriting library : XviD 64\n\nAudio\n--------\nFormat : AC-3\nFormat/Info : Audio Coding 3\nMode extension : CM (complete main)\nFormat settings, Endianness : Big\nCodec ID : 2000\nDuration : 1h 56mn\nBit rate mode : Constant\nBit rate : 192 Kbps\nChannel(s) : 2 channels\nChannel positions : Front: L R\nSampling rate : 48.0 KHz\nBit depth : 16 bits\nCompression mode : Lossy\nDelay relative to video : 24ms\nStream size : 160 MiB (11%)\nAlignment : Split accross interleaves\nInterleave, duration : 96 ms (2.40 video frames)\nInterleave, preload duration : 96 ms\nLanguage : English","torrent":{"xt":"urn:btih:44f1fb915829b3e44e26e15d2723e64feb29daeb","amp;dn":"The+Slaughter+Rule+2002+DVDRip+ReRip+XviD+AC3+titler","amp;tr":["udp%3A%2F%2Ftracker.openbittorrent.com%3A80","udp%3A%2F%2Fopen.demonii.com%3A1337","udp%3A%2F%2Ftracker.coppersurfer.tk%3A6969","udp%3A%2F%2Fexodus.desync.com%3A6969"],"infoHash":"44f1fb915829b3e44e26e15d2723e64feb29daeb","infoHashBuffer":{"type":"Buffer","data":[68,241,251,145,88,41,179,228,78,38,225,93,39,35,230,79,235,41,218,235]},"announce":[],"urlList":[]}}